<mxfile host="Electron" modified="2024-02-26T15:07:28.107Z" agent="Mozilla/5.0 (Windows NT 10.0; Win64; x64) AppleWebKit/537.36 (KHTML, like Gecko) draw.io/22.1.11 Chrome/114.0.5735.289 Electron/25.9.8 Safari/537.36" etag="pCklo-HlzSxLMZMykLCL" version="22.1.11" type="device">
  <diagram id="23iRSUPoRavnBvh4doch" name="Page-1">
    <mxGraphModel dx="-259" dy="697" grid="1" gridSize="10" guides="1" tooltips="1" connect="1" arrows="1" fold="1" page="1" pageScale="1" pageWidth="827" pageHeight="1169" math="0" shadow="0">
      <root>
        <mxCell id="0" />
        <mxCell id="1" parent="0" />
        <mxCell id="2" value="&lt;div style=&quot;box-sizing:border-box;width:100%;background:#e4e4e4;padding:2px;&quot;&gt;&lt;font color=&quot;#000000&quot;&gt;users&lt;/font&gt;&lt;/div&gt;&lt;table style=&quot;width:100%;font-size:1em;&quot; cellpadding=&quot;2&quot; cellspacing=&quot;0&quot;&gt;&lt;tbody&gt;&lt;tr&gt;&lt;td&gt;PK&lt;/td&gt;&lt;td&gt;id&lt;/td&gt;&lt;/tr&gt;&lt;tr&gt;&lt;td&gt;&lt;br&gt;&lt;/td&gt;&lt;td&gt;name&lt;/td&gt;&lt;/tr&gt;&lt;tr&gt;&lt;td&gt;&lt;/td&gt;&lt;td&gt;email&lt;br&gt;List&amp;lt;posts&amp;gt;&lt;br&gt;List&amp;lt;channels&amp;gt;&lt;/td&gt;&lt;/tr&gt;&lt;/tbody&gt;&lt;/table&gt;" style="verticalAlign=top;align=left;overflow=fill;html=1;whiteSpace=wrap;" parent="1" vertex="1">
          <mxGeometry x="1994" y="410" width="140" height="120" as="geometry" />
        </mxCell>
        <mxCell id="3" value="&lt;div style=&quot;box-sizing:border-box;width:100%;background:#e4e4e4;padding:2px;&quot;&gt;&lt;font color=&quot;#000000&quot;&gt;posts&lt;/font&gt;&lt;/div&gt;&lt;table style=&quot;width:100%;font-size:1em;&quot; cellpadding=&quot;2&quot; cellspacing=&quot;0&quot;&gt;&lt;tbody&gt;&lt;tr&gt;&lt;td&gt;PK&lt;/td&gt;&lt;td&gt;id&lt;/td&gt;&lt;/tr&gt;&lt;tr&gt;&lt;td&gt;&lt;br&gt;&lt;/td&gt;&lt;td&gt;message&lt;/td&gt;&lt;/tr&gt;&lt;tr&gt;&lt;td&gt;&lt;/td&gt;&lt;td&gt;postDateTime&lt;br&gt;idChannel&lt;br&gt;idUser&lt;br&gt;user&lt;br&gt;channel&lt;/td&gt;&lt;/tr&gt;&lt;/tbody&gt;&lt;/table&gt;" style="verticalAlign=top;align=left;overflow=fill;html=1;whiteSpace=wrap;" parent="1" vertex="1">
          <mxGeometry x="2264" y="569" width="150" height="151" as="geometry" />
        </mxCell>
        <mxCell id="4" value="&lt;div style=&quot;box-sizing:border-box;width:100%;background:#e4e4e4;padding:2px;&quot;&gt;&lt;font color=&quot;#000000&quot;&gt;channels&lt;/font&gt;&lt;/div&gt;&lt;table style=&quot;width:100%;font-size:1em;&quot; cellpadding=&quot;2&quot; cellspacing=&quot;0&quot;&gt;&lt;tbody&gt;&lt;tr&gt;&lt;td&gt;PK&lt;/td&gt;&lt;td&gt;id&lt;/td&gt;&lt;/tr&gt;&lt;tr&gt;&lt;td&gt;&lt;br&gt;&lt;/td&gt;&lt;td&gt;name&lt;br&gt;isDeletable&lt;/td&gt;&lt;/tr&gt;&lt;tr&gt;&lt;td&gt;&lt;/td&gt;&lt;td&gt;List&amp;lt;posts&amp;gt;&lt;br&gt;user&lt;/td&gt;&lt;/tr&gt;&lt;/tbody&gt;&lt;/table&gt;" style="verticalAlign=top;align=left;overflow=fill;html=1;whiteSpace=wrap;" parent="1" vertex="1">
          <mxGeometry x="1744" y="569" width="120" height="111" as="geometry" />
        </mxCell>
        <mxCell id="5" value="Relation" style="endArrow=open;html=1;endSize=12;startArrow=diamondThin;startSize=14;startFill=0;rounded=0;entryX=0.995;entryY=0.6;entryDx=0;entryDy=0;exitX=0;exitY=0.25;exitDx=0;exitDy=0;entryPerimeter=0;" parent="1" source="3" target="2" edge="1">
          <mxGeometry relative="1" as="geometry">
            <mxPoint x="2344" y="506.5" as="sourcePoint" />
            <mxPoint x="2244" y="439" as="targetPoint" />
          </mxGeometry>
        </mxCell>
        <mxCell id="6" value="0..n" style="edgeLabel;resizable=0;html=1;align=left;verticalAlign=top;" parent="5" connectable="0" vertex="1">
          <mxGeometry x="-1" relative="1" as="geometry" />
        </mxCell>
        <mxCell id="7" value="1" style="edgeLabel;resizable=0;html=1;align=right;verticalAlign=top;" parent="5" connectable="0" vertex="1">
          <mxGeometry x="1" relative="1" as="geometry" />
        </mxCell>
        <mxCell id="11" value="Relation" style="endArrow=open;html=1;endSize=12;startArrow=diamondThin;startSize=14;startFill=0;rounded=0;entryX=0;entryY=0.75;entryDx=0;entryDy=0;exitX=1.006;exitY=0.333;exitDx=0;exitDy=0;exitPerimeter=0;" parent="1" source="4" target="2" edge="1">
          <mxGeometry relative="1" as="geometry">
            <mxPoint x="2155" y="789.5" as="sourcePoint" />
            <mxPoint x="2034" y="619" as="targetPoint" />
          </mxGeometry>
        </mxCell>
        <mxCell id="12" value="0..n" style="edgeLabel;resizable=0;html=1;align=left;verticalAlign=top;" parent="11" connectable="0" vertex="1">
          <mxGeometry x="-1" relative="1" as="geometry" />
        </mxCell>
        <mxCell id="13" value="1" style="edgeLabel;resizable=0;html=1;align=right;verticalAlign=top;" parent="11" connectable="0" vertex="1">
          <mxGeometry x="1" relative="1" as="geometry" />
        </mxCell>
        <mxCell id="14" value="Relation" style="endArrow=open;html=1;endSize=12;startArrow=diamondThin;startSize=14;startFill=0;rounded=0;entryX=1;entryY=0.75;entryDx=0;entryDy=0;exitX=0;exitY=0.75;exitDx=0;exitDy=0;" parent="1" source="3" target="4" edge="1">
          <mxGeometry relative="1" as="geometry">
            <mxPoint x="2025" y="879.5" as="sourcePoint" />
            <mxPoint x="1904" y="709" as="targetPoint" />
          </mxGeometry>
        </mxCell>
        <mxCell id="15" value="0..n" style="edgeLabel;resizable=0;html=1;align=left;verticalAlign=top;" parent="14" connectable="0" vertex="1">
          <mxGeometry x="-1" relative="1" as="geometry" />
        </mxCell>
        <mxCell id="16" value="1" style="edgeLabel;resizable=0;html=1;align=right;verticalAlign=top;" parent="14" connectable="0" vertex="1">
          <mxGeometry x="1" relative="1" as="geometry" />
        </mxCell>
        <mxCell id="17" value="" style="rounded=0;orthogonalLoop=1;jettySize=auto;html=1;exitX=0.5;exitY=1;exitDx=0;exitDy=0;" parent="1" source="18" target="20" edge="1">
          <mxGeometry relative="1" as="geometry" />
        </mxCell>
        <mxCell id="18" value="Channels" style="ellipse;whiteSpace=wrap;html=1;" parent="1" vertex="1">
          <mxGeometry x="1719" y="120" width="120" height="80" as="geometry" />
        </mxCell>
        <mxCell id="19" value="" style="rounded=0;orthogonalLoop=1;jettySize=auto;html=1;exitX=0.5;exitY=1;exitDx=0;exitDy=0;" parent="1" source="18" target="22" edge="1">
          <mxGeometry relative="1" as="geometry" />
        </mxCell>
        <mxCell id="20" value="name" style="ellipse;whiteSpace=wrap;html=1;" parent="1" vertex="1">
          <mxGeometry x="1654" y="230" width="70" height="50" as="geometry" />
        </mxCell>
        <mxCell id="21" value="" style="rounded=0;orthogonalLoop=1;jettySize=auto;html=1;exitX=0.5;exitY=1;exitDx=0;exitDy=0;" parent="1" source="18" target="23" edge="1">
          <mxGeometry relative="1" as="geometry" />
        </mxCell>
        <mxCell id="22" value="isDeletable" style="ellipse;whiteSpace=wrap;html=1;" parent="1" vertex="1">
          <mxGeometry x="1704" y="280" width="70" height="50" as="geometry" />
        </mxCell>
        <mxCell id="23" value="List&amp;lt;post&amp;gt;" style="ellipse;whiteSpace=wrap;html=1;" parent="1" vertex="1">
          <mxGeometry x="1789" y="270" width="70" height="50" as="geometry" />
        </mxCell>
        <mxCell id="24" value="" style="rounded=0;orthogonalLoop=1;jettySize=auto;html=1;exitX=0.5;exitY=1;exitDx=0;exitDy=0;" parent="1" source="25" target="27" edge="1">
          <mxGeometry relative="1" as="geometry" />
        </mxCell>
        <mxCell id="25" value="Users" style="ellipse;whiteSpace=wrap;html=1;" parent="1" vertex="1">
          <mxGeometry x="1984" y="120" width="120" height="80" as="geometry" />
        </mxCell>
        <mxCell id="26" value="" style="rounded=0;orthogonalLoop=1;jettySize=auto;html=1;exitX=0.5;exitY=1;exitDx=0;exitDy=0;" parent="1" source="25" target="29" edge="1">
          <mxGeometry relative="1" as="geometry" />
        </mxCell>
        <mxCell id="27" value="name" style="ellipse;whiteSpace=wrap;html=1;" parent="1" vertex="1">
          <mxGeometry x="1914" y="250" width="70" height="50" as="geometry" />
        </mxCell>
        <mxCell id="28" value="" style="rounded=0;orthogonalLoop=1;jettySize=auto;html=1;exitX=0.5;exitY=1;exitDx=0;exitDy=0;" parent="1" source="25" target="30" edge="1">
          <mxGeometry relative="1" as="geometry" />
        </mxCell>
        <mxCell id="29" value="List&amp;lt;post&amp;gt;" style="ellipse;whiteSpace=wrap;html=1;" parent="1" vertex="1">
          <mxGeometry x="1958" y="320" width="70" height="50" as="geometry" />
        </mxCell>
        <mxCell id="30" value="email" style="ellipse;whiteSpace=wrap;html=1;" parent="1" vertex="1">
          <mxGeometry x="2104" y="240" width="70" height="50" as="geometry" />
        </mxCell>
        <mxCell id="31" value="List&amp;lt;channel&amp;gt;" style="ellipse;whiteSpace=wrap;html=1;" parent="1" vertex="1">
          <mxGeometry x="2064" y="320" width="90" height="50" as="geometry" />
        </mxCell>
        <mxCell id="32" value="" style="rounded=0;orthogonalLoop=1;jettySize=auto;html=1;entryX=0.344;entryY=0.04;entryDx=0;entryDy=0;entryPerimeter=0;" parent="1" target="31" edge="1">
          <mxGeometry relative="1" as="geometry">
            <mxPoint x="2044" y="200" as="sourcePoint" />
            <mxPoint x="2011.5280864435326" y="330.75347971936844" as="targetPoint" />
          </mxGeometry>
        </mxCell>
        <mxCell id="33" value="" style="rounded=0;orthogonalLoop=1;jettySize=auto;html=1;exitX=0.5;exitY=1;exitDx=0;exitDy=0;" parent="1" source="34" target="36" edge="1">
          <mxGeometry relative="1" as="geometry" />
        </mxCell>
        <mxCell id="34" value="Posts" style="ellipse;whiteSpace=wrap;html=1;" parent="1" vertex="1">
          <mxGeometry x="2404" y="120" width="120" height="80" as="geometry" />
        </mxCell>
        <mxCell id="35" value="" style="rounded=0;orthogonalLoop=1;jettySize=auto;html=1;" parent="1" target="38" edge="1">
          <mxGeometry relative="1" as="geometry">
            <mxPoint x="2464" y="200" as="sourcePoint" />
          </mxGeometry>
        </mxCell>
        <mxCell id="36" value="message" style="ellipse;whiteSpace=wrap;html=1;" parent="1" vertex="1">
          <mxGeometry x="2254" y="210" width="70" height="50" as="geometry" />
        </mxCell>
        <mxCell id="37" value="" style="rounded=0;orthogonalLoop=1;jettySize=auto;html=1;exitX=0.5;exitY=1;exitDx=0;exitDy=0;" parent="1" source="34" target="39" edge="1">
          <mxGeometry relative="1" as="geometry" />
        </mxCell>
        <mxCell id="38" value="user" style="ellipse;whiteSpace=wrap;html=1;" parent="1" vertex="1">
          <mxGeometry x="2594" y="220" width="70" height="50" as="geometry" />
        </mxCell>
        <mxCell id="39" value="postDateTime" style="ellipse;whiteSpace=wrap;html=1;" parent="1" vertex="1">
          <mxGeometry x="2294" y="270" width="90" height="50" as="geometry" />
        </mxCell>
        <mxCell id="40" value="channel" style="ellipse;whiteSpace=wrap;html=1;" parent="1" vertex="1">
          <mxGeometry x="2574" y="280" width="90" height="50" as="geometry" />
        </mxCell>
        <mxCell id="41" value="" style="rounded=0;orthogonalLoop=1;jettySize=auto;html=1;entryX=0.344;entryY=0.04;entryDx=0;entryDy=0;entryPerimeter=0;" parent="1" target="40" edge="1">
          <mxGeometry relative="1" as="geometry">
            <mxPoint x="2464" y="200" as="sourcePoint" />
            <mxPoint x="2301.5280864435326" y="330.75347971936844" as="targetPoint" />
          </mxGeometry>
        </mxCell>
        <mxCell id="42" value="&lt;font style=&quot;font-size: 22px;&quot;&gt;Diagramme de classe projet Slack&lt;/font&gt;" style="rounded=0;whiteSpace=wrap;html=1;" parent="1" vertex="1">
          <mxGeometry x="1704" y="30" width="750" height="60" as="geometry" />
        </mxCell>
        <mxCell id="uhxKIeOy1Sb3G8tkiVlu-42" value="user" style="ellipse;whiteSpace=wrap;html=1;" vertex="1" parent="1">
          <mxGeometry x="1839" y="220" width="70" height="50" as="geometry" />
        </mxCell>
        <mxCell id="uhxKIeOy1Sb3G8tkiVlu-43" value="" style="rounded=0;orthogonalLoop=1;jettySize=auto;html=1;exitX=0.558;exitY=1.05;exitDx=0;exitDy=0;entryX=0;entryY=0.3;entryDx=0;entryDy=0;entryPerimeter=0;exitPerimeter=0;" edge="1" parent="1" source="18" target="uhxKIeOy1Sb3G8tkiVlu-42">
          <mxGeometry relative="1" as="geometry">
            <mxPoint x="1805.2199999999998" y="190" as="sourcePoint" />
            <mxPoint x="1839.2199999999998" y="261" as="targetPoint" />
          </mxGeometry>
        </mxCell>
        <mxCell id="uhxKIeOy1Sb3G8tkiVlu-44" value="idChannel" style="ellipse;whiteSpace=wrap;html=1;" vertex="1" parent="1">
          <mxGeometry x="2374" y="310" width="90" height="50" as="geometry" />
        </mxCell>
        <mxCell id="uhxKIeOy1Sb3G8tkiVlu-45" value="idUser" style="ellipse;whiteSpace=wrap;html=1;" vertex="1" parent="1">
          <mxGeometry x="2474" y="310" width="90" height="50" as="geometry" />
        </mxCell>
        <mxCell id="uhxKIeOy1Sb3G8tkiVlu-46" value="" style="rounded=0;orthogonalLoop=1;jettySize=auto;html=1;entryX=0.414;entryY=0.038;entryDx=0;entryDy=0;entryPerimeter=0;" edge="1" parent="1" target="uhxKIeOy1Sb3G8tkiVlu-45">
          <mxGeometry relative="1" as="geometry">
            <mxPoint x="2464" y="200" as="sourcePoint" />
            <mxPoint x="2534.52" y="302" as="targetPoint" />
          </mxGeometry>
        </mxCell>
        <mxCell id="uhxKIeOy1Sb3G8tkiVlu-47" value="" style="rounded=0;orthogonalLoop=1;jettySize=auto;html=1;entryX=0.596;entryY=-0.012;entryDx=0;entryDy=0;entryPerimeter=0;" edge="1" parent="1" target="uhxKIeOy1Sb3G8tkiVlu-44">
          <mxGeometry relative="1" as="geometry">
            <mxPoint x="2464" y="200" as="sourcePoint" />
            <mxPoint x="2473.87" y="319.85" as="targetPoint" />
          </mxGeometry>
        </mxCell>
      </root>
    </mxGraphModel>
  </diagram>
</mxfile>
